<svg width="48" height="44" viewBox="0 0 48 44" fill="none" xmlns="http://www.w3.org/2000/svg">
<path d="M24.2795 2.17277C25.4984 0.954204 27.1514 0.269653 28.875 0.269653C30.5985 0.269653 32.2515 0.954204 33.4705 2.17277L46.0772 14.7795C47.2958 15.9984 47.9803 17.6514 47.9803 19.375C47.9803 21.0986 47.2958 22.7516 46.0772 23.9705L28.2022 41.8455C26.9835 43.0646 25.3305 43.7496 23.6067 43.75H14.64C12.9162 43.7496 11.2632 43.0646 10.0445 41.8455L1.91947 33.7205C0.700907 32.5016 0.0163574 30.8486 0.0163574 29.125C0.0163574 27.4014 0.700907 25.7484 1.91947 24.5295L24.2762 2.17277H24.2795ZM26.4245 39.0278L9.22222 21.8255L4.22047 26.8273C3.61119 27.4367 3.26891 28.2632 3.26891 29.125C3.26891 29.9868 3.61119 30.8133 4.22047 31.4228L12.3455 39.5478C12.9548 40.1573 13.7813 40.4998 14.6432 40.5H23.61C24.4719 40.4998 25.2984 40.1573 25.9077 39.5478L26.4277 39.0278H26.4245Z" fill="#AE189F"/>
</svg>
