<svg width="50" height="39" viewBox="0 0 50 39" fill="none" xmlns="http://www.w3.org/2000/svg">
<path fill-rule="evenodd" clip-rule="evenodd" d="M33.0612 1.35243C33.2201 1.22845 33.4088 1.13008 33.6165 1.06297C33.8243 0.995851 34.047 0.961304 34.2719 0.961304C34.4968 0.961304 34.7195 0.995851 34.9273 1.06297C35.135 1.13008 35.3237 1.22845 35.4825 1.35243L49.1623 12.0031C49.3216 12.1268 49.4479 12.2737 49.5341 12.4354C49.6203 12.5972 49.6647 12.7706 49.6647 12.9457C49.6647 13.1208 49.6203 13.2942 49.5341 13.456C49.4479 13.6177 49.3216 13.7646 49.1623 13.8883L42.6576 18.9527L39.8225 27.7741C39.6069 28.4458 39.1707 29.0624 38.5567 29.5632C37.9428 30.0641 37.1722 30.4321 36.3204 30.6312L0.941101 38.8961L11.5566 11.3481C11.8125 10.6858 12.2849 10.0866 12.9275 9.60908C13.5702 9.13159 14.3611 8.79222 15.2228 8.62419L26.5531 6.4195L33.0612 1.35243ZM26.9053 9.09548L16.0538 11.207C15.7658 11.263 15.5014 11.3764 15.2867 11.536C15.0721 11.6957 14.9145 11.8961 14.8295 12.1176L6.04024 34.9234L35.3389 28.0803C35.6217 28.0136 35.8774 27.891 36.0812 27.7244C36.285 27.5578 36.4299 27.3529 36.5017 27.1298L39.2171 18.6784L26.9053 9.09282V9.09548Z" fill="#040404"/>
<path fill-rule="evenodd" clip-rule="evenodd" d="M6.33776 34.8541L24.012 23.5964C24.6884 23.5964 25.3496 23.4402 25.9121 23.1476C26.4745 22.8551 26.9128 22.4392 27.1717 21.9527C27.4305 21.4661 27.4982 20.9307 27.3663 20.4142C27.2343 19.8977 26.9086 19.4233 26.4303 19.0509C25.952 18.6785 25.3426 18.4249 24.6792 18.3222C24.0158 18.2195 23.3282 18.2722 22.7033 18.4737C22.0784 18.6752 21.5442 19.0165 21.1685 19.4544C20.7927 19.8923 20.5921 20.4071 20.5921 20.9337L6.13256 34.6944L6.04364 34.9234L6.33776 34.8541Z" fill="#040404"/>
</svg>
